<svg xmlns="http://www.w3.org/2000/svg" preserveAspectRatio="none" width="720" height="1044" viewBox="0 0 720 1044"><path fill="#FFF" fill-rule="evenodd" d="M380 199v12h80v-12h-80zM0 0h720v1044H0V0zm52 843a2 2 0 0 0-2 2v146a2 2 0 0 0 2 2h616a2 2 0 0 0 2-2V845a2 2 0 0 0-2-2H52zm-2-20v12h80v-12H50zm0-36v20h160v-20H50zm0-62v12h80v-12H50zm2-262a2 2 0 0 0-2 2v42a2 2 0 0 0 2 2h286a2 2 0 0 0 2-2v-42a2 2 0 0 0-2-2H52zm-2-20v12h80v-12H50zm2 116a2 2 0 0 0-2 2v42a2 2 0 0 0 2 2h286a2 2 0 0 0 2-2v-42a2 2 0 0 0-2-2H52zm-2-20v12h80v-12H50zm2 116a2 2 0 0 0-2 2v42a2 2 0 0 0 2 2h286a2 2 0 0 0 2-2v-42a2 2 0 0 0-2-2H52zm-2-20v12h80v-12H50zm332-172a2 2 0 0 0-2 2v42a2 2 0 0 0 2 2h286a2 2 0 0 0 2-2v-42a2 2 0 0 0-2-2H382zm-2-20v12h80v-12h-80zm2 116a2 2 0 0 0-2 2v42a2 2 0 0 0 2 2h286a2 2 0 0 0 2-2v-42a2 2 0 0 0-2-2H382zm-2-20v12h80v-12h-80zm2 116a2 2 0 0 0-2 2v42a2 2 0 0 0 2 2h286a2 2 0 0 0 2-2v-42a2 2 0 0 0-2-2H382zm-2-20v12h80v-12h-80zM50 405v20h160v-20H50zm2-186a2 2 0 0 0-2 2v42a2 2 0 0 0 2 2h286a2 2 0 0 0 2-2v-42a2 2 0 0 0-2-2H52zm-2-20v12h80v-12H50zm332 20a2 2 0 0 0-2 2v42a2 2 0 0 0 2 2h286a2 2 0 0 0 2-2v-42a2 2 0 0 0-2-2H382zM52 315a2 2 0 0 0-2 2v42a2 2 0 0 0 2 2h286a2 2 0 0 0 2-2v-42a2 2 0 0 0-2-2H52zm-2-20v12h80v-12H50zm332 20a2 2 0 0 0-2 2v42a2 2 0 0 0 2 2h286a2 2 0 0 0 2-2v-42a2 2 0 0 0-2-2H382zm-2-20v12h80v-12h-80zM50 128v24h620v-24H50zm260-44v12h100V84H310zm-50-36v24h200V48H260z"/></svg>
